<svg xmlns="http://www.w3.org/2000/svg" viewBox="0 0 100 100">
  <defs>
    <linearGradient id="ultimate-grad" x1="0%" y1="0%" x2="0%" y2="100%">
      <stop offset="0%" style="stop-color:#fff9c4;stop-opacity:1" />
      <stop offset="50%" style="stop-color:#ffd54f;stop-opacity:1" />
      <stop offset="100%" style="stop-color:#ffa000;stop-opacity:1" />
    </linearGradient>
    <radialGradient id="ultimate-glow" cx="50%" cy="50%" r="50%">
      <stop offset="0%" style="stop-color:#ffffff;stop-opacity:1" />
      <stop offset="50%" style="stop-color:#ffeb3b;stop-opacity:0.6" />
      <stop offset="100%" style="stop-color:#ff6f00;stop-opacity:0" />
    </radialGradient>
    <filter id="glow">
      <feGaussianBlur stdDeviation="2" result="coloredBlur"/>
      <feMerge>
        <feMergeNode in="coloredBlur"/>
        <feMergeNode in="SourceGraphic"/>
      </feMerge>
    </filter>
  </defs>

  <!-- Base do escudo -->
  <path d="M50 10 L20 25 L20 50 Q20 75 50 90 Q80 75 80 50 L80 25 Z"
        fill="url(#ultimate-grad)" stroke="#f57c00" stroke-width="2.5"/>

  <!-- Borda dourada -->
  <path d="M50 15 L25 28 L25 50 Q25 72 50 85 Q75 72 75 50 L75 28 Z"
        fill="none" stroke="#ffecb3" stroke-width="1.5" opacity="0.8"/>

  <!-- Aura brilhante central -->
  <circle cx="50" cy="50" r="25" fill="url(#ultimate-glow)" opacity="0.3"/>

  <!-- Coroa imperial -->
  <g fill="#ffd700" stroke="#f57c00" stroke-width="0.8">
    <path d="M35,45 L38,40 L41,45 L44,38 L47,45 L50,35 L53,45 L56,38 L59,45 L62,40 L65,45 L65,52 L35,52 Z"/>
    <circle cx="38" cy="40" r="2" fill="#ff6f00"/>
    <circle cx="50" cy="35" r="3" fill="#ff6f00"/>
    <circle cx="62" cy="40" r="2" fill="#ff6f00"/>
  </g>

  <!-- Gema central -->
  <g filter="url(#glow)">
    <polygon points="50,55 45,60 47,67 53,67 55,60" fill="#4fc3f7" opacity="0.9"/>
    <polygon points="50,55 45,60 50,63 55,60" fill="#b3e5fc"/>
  </g>

  <!-- Raios de poder -->
  <g stroke="#ffeb3b" stroke-width="2" opacity="0.6" stroke-linecap="round">
    <line x1="50" y1="20" x2="50" y2="28"/>
    <line x1="50" y1="72" x2="50" y2="80"/>
    <line x1="28" y1="50" x2="36" y2="50"/>
    <line x1="64" y1="50" x2="72" y2="50"/>
    <line x1="34" y1="34" x2="40" y2="40"/>
    <line x1="60" y1="60" x2="66" y2="66"/>
    <line x1="66" y1="34" x2="60" y2="40"/>
    <line x1="40" y1="60" x2="34" y2="66"/>
  </g>

  <!-- Estrelas decorativas -->
  <g fill="#ffffff" opacity="0.9">
    <path d="M25,35 L26,37 L28,37 L26.5,38.5 L27,40 L25,39 L23,40 L23.5,38.5 L22,37 L24,37 Z"/>
    <path d="M75,35 L76,37 L78,37 L76.5,38.5 L77,40 L75,39 L73,40 L73.5,38.5 L72,37 L74,37 Z"/>
    <path d="M50,18 L51,20 L53,20 L51.5,21.5 L52,23 L50,22 L48,23 L48.5,21.5 L47,20 L49,20 Z"/>
  </g>
</svg>