<svg xmlns="http://www.w3.org/2000/svg" viewBox="0 0 100 100">
  <defs>
    <linearGradient id="celestial-grad" x1="0%" y1="0%" x2="0%" y2="100%">
      <stop offset="0%" style="stop-color:#e0f7ff;stop-opacity:1" />
      <stop offset="100%" style="stop-color:#4fc3f7;stop-opacity:1" />
    </linearGradient>
    <radialGradient id="star-glow" cx="50%" cy="50%" r="50%">
      <stop offset="0%" style="stop-color:#ffffff;stop-opacity:1" />
      <stop offset="100%" style="stop-color:#ffd700;stop-opacity:0.3" />
    </radialGradient>
  </defs>

  <!-- Base do escudo -->
  <path d="M50 10 L20 25 L20 50 Q20 75 50 90 Q80 75 80 50 L80 25 Z"
        fill="url(#celestial-grad)" stroke="#0277bd" stroke-width="2"/>

  <!-- Borda interna -->
  <path d="M50 15 L25 28 L25 50 Q25 72 50 85 Q75 72 75 50 L75 28 Z"
        fill="none" stroke="#81d4fa" stroke-width="1" opacity="0.6"/>

  <!-- Estrela central grande -->
  <g transform="translate(50, 50)">
    <circle cx="0" cy="0" r="15" fill="url(#star-glow)"/>
    <path d="M0,-12 L3,-4 L12,-4 L5,1 L8,10 L0,5 L-8,10 L-5,1 L-12,-4 L-3,-4 Z"
          fill="#ffd700" stroke="#ff6f00" stroke-width="0.5"/>
  </g>

  <!-- Estrelas menores -->
  <g fill="#ffffff" opacity="0.8">
    <circle cx="35" cy="35" r="2"/>
    <circle cx="65" cy="35" r="2"/>
    <circle cx="35" cy="65" r="2"/>
    <circle cx="65" cy="65" r="2"/>
  </g>

  <!-- Raios de luz -->
  <g stroke="#ffffff" stroke-width="1" opacity="0.4">
    <line x1="50" y1="20" x2="50" y2="30"/>
    <line x1="50" y1="70" x2="50" y2="80"/>
    <line x1="30" y1="50" x2="20" y2="50"/>
    <line x1="70" y1="50" x2="80" y2="50"/>
  </g>

  <!-- Detalhes decorativos -->
  <circle cx="50" cy="22" r="3" fill="#ffd700" opacity="0.6"/>
  <circle cx="50" cy="78" r="3" fill="#ffd700" opacity="0.6"/>
</svg>