<svg xmlns="http://www.w3.org/2000/svg" viewBox="0 0 64 64">
  <!-- Background - Golden gradient -->
  <defs>
    <radialGradient id="goldGrad" cx="50%" cy="50%" r="60%">
      <stop offset="0%" style="stop-color:#FFE082;stop-opacity:1" />
      <stop offset="50%" style="stop-color:#FFB300;stop-opacity:1" />
      <stop offset="100%" style="stop-color:#E65100;stop-opacity:1" />
    </radialGradient>
    <linearGradient id="throneGrad" x1="0%" y1="0%" x2="0%" y2="100%">
      <stop offset="0%" style="stop-color:#FFD700;stop-opacity:1" />
      <stop offset="50%" style="stop-color:#FFA000;stop-opacity:1" />
      <stop offset="100%" style="stop-color:#FF6F00;stop-opacity:1" />
    </linearGradient>
    <radialGradient id="glowGold" cx="50%" cy="50%" r="50%">
      <stop offset="0%" style="stop-color:#FFECB3;stop-opacity:0.9" />
      <stop offset="100%" style="stop-color:#FFB300;stop-opacity:0" />
    </radialGradient>
  </defs>

  <!-- Main circle -->
  <circle cx="32" cy="32" r="30" fill="url(#goldGrad)" stroke="#BF360C" stroke-width="2"/>

  <!-- Glow effect -->
  <circle cx="32" cy="28" r="20" fill="url(#glowGold)"/>

  <!-- Throne base -->
  <rect x="18" y="42" width="28" height="14" fill="url(#throneGrad)" stroke="#BF360C" stroke-width="1.5"/>

  <!-- Throne back -->
  <path d="M 20,42 L 20,28 L 24,24 L 28,28 L 28,42 Z" fill="#FFD700" stroke="#BF360C" stroke-width="1.5"/>
  <path d="M 44,42 L 44,28 L 40,24 L 36,28 L 36,42 Z" fill="#FFD700" stroke="#BF360C" stroke-width="1.5"/>
  <path d="M 28,42 L 28,22 L 32,18 L 36,22 L 36,42 Z" fill="#FFECB3" stroke="#BF360C" stroke-width="1.5"/>

  <!-- Crown on throne -->
  <polygon points="32,18 28,22 30,26 32,24 34,26 36,22" fill="#FFD700" stroke="#BF360C" stroke-width="1"/>

  <!-- Crown decorations - gems -->
  <circle cx="30" cy="24" r="1.5" fill="#E91E63"/>
  <circle cx="32" cy="22" r="2" fill="#9C27B0"/>
  <circle cx="34" cy="24" r="1.5" fill="#E91E63"/>

  <!-- Side pillars -->
  <rect x="14" y="36" width="4" height="20" fill="#FFB300" stroke="#BF360C" stroke-width="1"/>
  <rect x="46" y="36" width="4" height="20" fill="#FFB300" stroke="#BF360C" stroke-width="1"/>

  <!-- Pillar tops -->
  <circle cx="16" cy="36" r="3" fill="#FFD700" stroke="#BF360C" stroke-width="1"/>
  <circle cx="48" cy="36" r="3" fill="#FFD700" stroke="#BF360C" stroke-width="1"/>

  <!-- Royal patterns -->
  <rect x="22" y="46" width="2" height="6" fill="#BF360C" opacity="0.3"/>
  <rect x="26" y="46" width="2" height="6" fill="#BF360C" opacity="0.3"/>
  <rect x="30" y="46" width="2" height="6" fill="#BF360C" opacity="0.3"/>
  <rect x="34" y="46" width="2" height="6" fill="#BF360C" opacity="0.3"/>
  <rect x="38" y="46" width="2" height="6" fill="#BF360C" opacity="0.3"/>
  <rect x="42" y="46" width="2" height="6" fill="#BF360C" opacity="0.3"/>

  <!-- Sparkles around throne -->
  <polygon points="14,20 15,22 17,23 15,24 14,26 13,24 11,23 13,22" fill="#FFECB3"/>
  <polygon points="50,22 51,24 53,25 51,26 50,28 49,26 47,25 49,24" fill="#FFECB3"/>
  <polygon points="10,48 11,50 13,51 11,52 10,54 9,52 7,51 9,50" fill="#FFECB3"/>
  <polygon points="54,46 55,48 57,49 55,50 54,52 53,50 51,49 53,48" fill="#FFECB3"/>

  <!-- Central star/glory -->
  <circle cx="32" cy="28" r="3" fill="#FFECB3" opacity="0.8"/>
  <polygon points="32,25 33,27 35,28 33,29 32,31 31,29 29,28 31,27" fill="#FFFFFF"/>
</svg>
