<svg xmlns="http://www.w3.org/2000/svg" viewBox="0 0 64 64">
  <!-- Background - Sky gradient -->
  <defs>
    <linearGradient id="skyGrad" x1="0%" y1="0%" x2="0%" y2="100%">
      <stop offset="0%" style="stop-color:#87CEEB;stop-opacity:1" />
      <stop offset="100%" style="stop-color:#4FC3F7;stop-opacity:1" />
    </linearGradient>
    <radialGradient id="glowGrad" cx="50%" cy="50%" r="50%">
      <stop offset="0%" style="stop-color:#FFFFFF;stop-opacity:0.8" />
      <stop offset="100%" style="stop-color:#B3E5FC;stop-opacity:0" />
    </radialGradient>
  </defs>

  <!-- Main circle -->
  <circle cx="32" cy="32" r="30" fill="url(#skyGrad)" stroke="#0277BD" stroke-width="2"/>

  <!-- Clouds -->
  <ellipse cx="18" cy="20" rx="8" ry="4" fill="#FFFFFF" opacity="0.7"/>
  <ellipse cx="46" cy="18" rx="10" ry="5" fill="#FFFFFF" opacity="0.7"/>
  <ellipse cx="24" cy="46" rx="7" ry="4" fill="#FFFFFF" opacity="0.6"/>
  <ellipse cx="50" cy="44" rx="9" ry="4" fill="#FFFFFF" opacity="0.6"/>

  <!-- Castle/Temple structure -->
  <rect x="20" y="36" width="24" height="18" fill="#E3F2FD" stroke="#0277BD" stroke-width="1.5"/>
  <polygon points="32,20 20,36 44,36" fill="#81D4FA" stroke="#0277BD" stroke-width="1.5"/>

  <!-- Tower -->
  <rect x="28" y="28" width="8" height="14" fill="#B3E5FC" stroke="#0277BD" stroke-width="1"/>
  <polygon points="32,20 28,28 36,28" fill="#4FC3F7" stroke="#0277BD" stroke-width="1"/>

  <!-- Windows -->
  <rect x="24" y="42" width="4" height="6" fill="#0277BD" opacity="0.6"/>
  <rect x="36" y="42" width="4" height="6" fill="#0277BD" opacity="0.6"/>

  <!-- Central glow -->
  <circle cx="32" cy="24" r="10" fill="url(#glowGrad)"/>

  <!-- Stars/sparkles -->
  <circle cx="14" cy="14" r="1.5" fill="#FFFFFF"/>
  <circle cx="50" cy="12" r="1.5" fill="#FFFFFF"/>
  <circle cx="52" cy="52" r="1.5" fill="#FFFFFF"/>
  <circle cx="12" cy="50" r="1.5" fill="#FFFFFF"/>

  <!-- Wings decoration -->
  <path d="M 16,32 Q 10,28 12,24 Q 14,28 16,32 Z" fill="#FFFFFF" opacity="0.7"/>
  <path d="M 48,32 Q 54,28 52,24 Q 50,28 48,32 Z" fill="#FFFFFF" opacity="0.7"/>
</svg>
