<svg xmlns="http://www.w3.org/2000/svg" viewBox="0 0 64 64">
  <!-- Background - Space gradient -->
  <defs>
    <radialGradient id="spaceGrad" cx="50%" cy="50%" r="60%">
      <stop offset="0%" style="stop-color:#7B1FA2;stop-opacity:1" />
      <stop offset="50%" style="stop-color:#4A148C;stop-opacity:1" />
      <stop offset="100%" style="stop-color:#1A0A2E;stop-opacity:1" />
    </radialGradient>
    <radialGradient id="nebulaGrad" cx="40%" cy="40%" r="50%">
      <stop offset="0%" style="stop-color:#E1BEE7;stop-opacity:0.6" />
      <stop offset="50%" style="stop-color:#9C27B0;stop-opacity:0.3" />
      <stop offset="100%" style="stop-color:#4A148C;stop-opacity:0" />
    </radialGradient>
  </defs>

  <!-- Main circle - Deep space -->
  <circle cx="32" cy="32" r="30" fill="url(#spaceGrad)" stroke="#6A1B9A" stroke-width="2"/>

  <!-- Nebula effect -->
  <ellipse cx="28" cy="30" rx="18" ry="20" fill="url(#nebulaGrad)"/>

  <!-- Stars - different sizes -->
  <circle cx="12" cy="12" r="1.5" fill="#FFFFFF"/>
  <circle cx="50" cy="10" r="1" fill="#FFFFFF"/>
  <circle cx="18" cy="52" r="1.5" fill="#FFFFFF"/>
  <circle cx="52" cy="48" r="1" fill="#FFFFFF"/>
  <circle cx="10" cy="38" r="1" fill="#FFFFFF"/>
  <circle cx="56" cy="28" r="1.5" fill="#FFFFFF"/>
  <circle cx="48" cy="54" r="1" fill="#FFFFFF"/>
  <circle cx="8" cy="24" r="1" fill="#FFFFFF"/>
  <circle cx="44" cy="16" r="1" fill="#FFFFFF"/>
  <circle cx="16" cy="44" r="1" fill="#FFFFFF"/>

  <!-- Glowing stars -->
  <circle cx="24" cy="18" r="2" fill="#E1BEE7" opacity="0.8"/>
  <circle cx="42" cy="38" r="2" fill="#CE93D8" opacity="0.8"/>
  <circle cx="38" cy="50" r="1.5" fill="#BA68C8" opacity="0.7"/>

  <!-- Portal/Dimensional gate -->
  <ellipse cx="32" cy="32" rx="14" ry="16" fill="none" stroke="#9C27B0" stroke-width="1.5" opacity="0.8"/>
  <ellipse cx="32" cy="32" rx="10" ry="12" fill="none" stroke="#BA68C8" stroke-width="1.5" opacity="0.6"/>
  <ellipse cx="32" cy="32" rx="6" ry="8" fill="none" stroke="#E1BEE7" stroke-width="1.5" opacity="0.8"/>

  <!-- Central cosmic energy -->
  <circle cx="32" cy="32" r="4" fill="#E1BEE7" opacity="0.9"/>
  <circle cx="32" cy="32" r="2" fill="#FFFFFF"/>

  <!-- Planets/Moons -->
  <circle cx="18" cy="28" r="3" fill="#7B1FA2" stroke="#9C27B0" stroke-width="1"/>
  <circle cx="46" cy="34" r="2.5" fill="#6A1B9A" stroke="#BA68C8" stroke-width="0.8"/>

  <!-- Energy particles -->
  <circle cx="26" cy="22" r="0.8" fill="#E1BEE7"/>
  <circle cx="38" cy="26" r="0.8" fill="#CE93D8"/>
  <circle cx="28" cy="42" r="0.8" fill="#BA68C8"/>
  <circle cx="36" cy="38" r="0.8" fill="#E1BEE7"/>

  <!-- Spiral effect -->
  <path d="M 32,32 Q 34,28 38,28 Q 40,30 40,32" fill="none" stroke="#9C27B0" stroke-width="1" opacity="0.5"/>
  <path d="M 32,32 Q 30,36 26,36 Q 24,34 24,32" fill="none" stroke="#BA68C8" stroke-width="1" opacity="0.5"/>
</svg>
