<svg viewBox="0 0 64 64" xmlns="http://www.w3.org/2000/svg">
  <rect x="18" y="36" width="28" height="12" fill="#8B4513"/>
  <rect x="20" y="38" width="24" height="8" fill="#A0522D"/>
  <ellipse cx="46" cy="42" rx="8" ry="6" fill="#696969"/>
  <ellipse cx="46" cy="42" rx="5" ry="4" fill="#A9A9A9"/>
  <circle cx="20" cy="48" r="4" fill="#2F4F4F"/>
  <circle cx="20" cy="48" r="2" fill="#696969"/>
  <circle cx="44" cy="48" r="4" fill="#2F4F4F"/>
  <circle cx="44" cy="48" r="2" fill="#696969"/>
  <circle cx="18" cy="28" r="6" fill="#FFE4B5"/>
  <circle cx="38" cy="28" r="6" fill="#FFE4B5"/>
  <path d="M 14 24 L 16 18 L 18 22 M 34 24 L 36 18 L 38 22" fill="#8B4513"/>
  <circle cx="17" cy="27" r="1.5" fill="#000"/>
  <circle cx="37" cy="27" r="1.5" fill="#000"/>
  <rect x="18" y="32" width="20" height="4" fill="#654321"/>
  <path d="M 46 42 L 54 42 L 52 38 L 50 38 Z" fill="#4A4A4A"/>
</svg>