<svg xmlns="http://www.w3.org/2000/svg" viewBox="0 0 64 64">
  <rect x="12" y="8" width="40" height="48" fill="#424242" stroke="#212121" stroke-width="2" rx="4"/>
  <circle cx="24" cy="24" r="6" fill="#EEEEEE" stroke="#9E9E9E" stroke-width="1"/>
  <circle cx="40" cy="24" r="6" fill="#EEEEEE" stroke="#9E9E9E" stroke-width="1"/>
  <circle cx="22" cy="23" r="2" fill="#212121"/>
  <circle cx="26" cy="23" r="2" fill="#212121"/>
  <circle cx="38" cy="23" r="2" fill="#212121"/>
  <circle cx="42" cy="23" r="2" fill="#212121"/>
  <path d="M 20,30 L 22,32 L 24,30 L 26,32 L 28,30" stroke="#EEEEEE" stroke-width="2" fill="none"/>
  <path d="M 36,30 L 38,32 L 40,30 L 42,32 L 44,30" stroke="#EEEEEE" stroke-width="2" fill="none"/>
  <rect x="26" y="36" width="4" height="12" fill="#EEEEEE"/>
  <rect x="34" y="36" width="4" height="12" fill="#EEEEEE"/>
  <polygon points="28,48 26,52 30,52" fill="#EEEEEE"/>
  <polygon points="36,48 34,52 38,52" fill="#EEEEEE"/>
  <path d="M 18,20 L 14,22 L 18,24" fill="#D32F2F"/>
  <path d="M 46,20 L 50,22 L 46,24" fill="#D32F2F"/>
</svg>