<svg xmlns="http://www.w3.org/2000/svg" viewBox="0 0 64 64">
  <rect x="12" y="8" width="40" height="48" fill="#212121" stroke="#000000" stroke-width="2" rx="4"/>
  <circle cx="22" cy="24" r="4" fill="#EEEEEE"/>
  <circle cx="32" cy="24" r="4" fill="#EEEEEE"/>
  <circle cx="42" cy="24" r="4" fill="#EEEEEE"/>
  <circle cx="20" cy="23" r="1" fill="#000000"/>
  <circle cx="24" cy="23" r="1" fill="#000000"/>
  <circle cx="30" cy="23" r="1" fill="#000000"/>
  <circle cx="34" cy="23" r="1" fill="#000000"/>
  <circle cx="40" cy="23" r="1" fill="#000000"/>
  <circle cx="44" cy="23" r="1" fill="#000000"/>
  <circle cx="22" cy="38" r="3" fill="#EEEEEE"/>
  <circle cx="32" cy="38" r="3" fill="#EEEEEE"/>
  <circle cx="42" cy="38" r="3" fill="#EEEEEE"/>
  <path d="M 18,48 L 20,50 L 22,48 L 24,50" stroke="#EEEEEE" stroke-width="1.5" fill="none"/>
  <path d="M 28,48 L 30,50 L 32,48 L 34,50 L 36,48" stroke="#EEEEEE" stroke-width="1.5" fill="none"/>
  <path d="M 38,48 L 40,50 L 42,48 L 44,50 L 46,48" stroke="#EEEEEE" stroke-width="1.5" fill="none"/>
</svg>