<svg xmlns="http://www.w3.org/2000/svg" viewBox="0 0 64 64">
  <ellipse cx="26" cy="54" rx="14" ry="5" fill="#4a4a4a" opacity="0.3"/>
  <ellipse cx="38" cy="54" rx="14" ry="5" fill="#4a4a4a" opacity="0.3"/>
  <rect x="18" y="30" width="12" height="24" fill="#8060a0" rx="2"/>
  <circle cx="24" cy="20" r="9" fill="#f4c8a4"/>
  <path d="M 18 14 L 16 20 L 22 18 Z" fill="#c08040"/>
  <path d="M 30 14 L 32 20 L 26 18 Z" fill="#c08040"/>
  <rect x="14" y="34" width="6" height="16" fill="#7050 90" rx="1"/>
  <rect x="30" y="34" width="6" height="16" fill="#705090" rx="1"/>
  <rect x="34" y="30" width="12" height="24" fill="#8060a0" rx="2"/>
  <circle cx="40" cy="20" r="9" fill="#f4c8a4"/>
  <path d="M 34 14 L 32 20 L 38 18 Z" fill="#c08040"/>
  <path d="M 46 14 L 48 20 L 42 18 Z" fill="#c08040"/>
  <rect x="30" y="34" width="6" height="16" fill="#705090" rx="1"/>
  <rect x="46" y="34" width="6" height="16" fill="#705090" rx="1"/>
</svg>