<svg viewBox="0 0 64 64" xmlns="http://www.w3.org/2000/svg">
  <ellipse cx="32" cy="38" rx="14" ry="16" fill="#8B4513"/>
  <ellipse cx="32" cy="38" rx="12" ry="14" fill="#A0522D"/>
  <rect x="30" y="22" width="4" height="8" fill="#8B4513"/>
  <path d="M 20 32 Q 32 30 44 32 M 20 40 Q 32 42 44 40 M 20 48 Q 32 46 44 48" stroke="#654321" stroke-width="1.5" fill="none"/>
  <circle cx="28" cy="35" r="3" fill="#FFF"/>
  <circle cx="36" cy="35" r="3" fill="#FFF"/>
  <circle cx="28" cy="35" r="1.5" fill="#000"/>
  <circle cx="36" cy="35" r="1.5" fill="#000"/>
  <path d="M 28 42 L 32 40 L 36 42" stroke="#FFF" stroke-width="2" fill="none"/>
  <path d="M 32 15 Q 28 18 30 22 M 32 15 Q 36 18 34 22" stroke="#000" stroke-width="2" fill="none"/>
</svg>