<svg viewBox="0 0 64 64" xmlns="http://www.w3.org/2000/svg">
  <defs>
    <linearGradient id="goldGrad" x1="0%" y1="0%" x2="0%" y2="100%">
      <stop offset="0%" style="stop-color:#FFD700"/>
      <stop offset="50%" style="stop-color:#FFA500"/>
      <stop offset="100%" style="stop-color:#FF8C00"/>
    </linearGradient>
    <radialGradient id="goldShine" cx="30%" cy="30%">
      <stop offset="0%" style="stop-color:#FFF;stop-opacity:0.8"/>
      <stop offset="100%" style="stop-color:#FFF;stop-opacity:0"/>
    </radialGradient>
    <filter id="shadowGold"><feDropShadow dx="2" dy="4" stdDeviation="3" flood-opacity="0.5"/></filter>
  </defs>
  <ellipse cx="32" cy="56" rx="24" ry="4" fill="#000" opacity="0.3"/>
  <rect x="16" y="30" width="32" height="24" rx="2" fill="url(#goldGrad)" filter="url(#shadowGold)"/>
  <rect x="18" y="32" width="28" height="20" fill="#DAA520"/>
  <path d="M 16 30 Q 32 22 48 30" fill="url(#goldGrad)" filter="url(#shadowGold)"/>
  <ellipse cx="32" cy="30" rx="16" ry="8" fill="#FFD700"/>
  <ellipse cx="32" cy="30" rx="14" ry="6" fill="url(#goldShine)"/>
  <rect x="30" y="38" width="4" height="8" fill="#8B4513" filter="url(#shadowGold)"/>
  <circle cx="32" cy="42" r="6" fill="#FF4500"/>
  <circle cx="32" cy="42" r="4" fill="#FFD700"/>
  <rect x="20" y="48" width="24" height="6" fill="url(#goldGrad)" filter="url(#shadowGold)"/>
  <path d="M 24 35 L 28 35 M 36 35 L 40 35" stroke="#8B4513" stroke-width="2"/>
  <circle cx="26" cy="40" r="2" fill="#FF6347"/>
  <circle cx="38" cy="40" r="2" fill="#FF6347"/>
</svg>