<svg viewBox="0 0 64 64" xmlns="http://www.w3.org/2000/svg">
  <defs>
    <linearGradient id="redHair" x1="0%" y1="0%" x2="0%" y2="100%">
      <stop offset="0%" style="stop-color:#FF6347"/>
      <stop offset="50%" style="stop-color:#FF4500"/>
      <stop offset="100%" style="stop-color:#DC143C"/>
    </linearGradient>
    <linearGradient id="skinTone" x1="0%" y1="0%" x2="0%" y2="100%">
      <stop offset="0%" style="stop-color:#FFE4C4"/>
      <stop offset="100%" style="stop-color:#FFDAB9"/>
    </linearGradient>
    <filter id="shadow"><feDropShadow dx="2" dy="3" stdDeviation="2" flood-opacity="0.4"/></filter>
  </defs>
  <ellipse cx="32" cy="56" rx="16" ry="3" fill="#000" opacity="0.3"/>
  <rect x="26" y="36" width="12" height="16" fill="#8B0000" filter="url(#shadow)"/>
  <ellipse cx="32" cy="28" rx="10" ry="12" fill="url(#skinTone)" filter="url(#shadow)"/>
  <path d="M 22 22 Q 22 14 32 12 Q 42 14 42 22 Q 42 28 38 30 Q 34 32 32 32 Q 30 32 26 30 Q 22 28 22 22 Z" fill="url(#redHair)" filter="url(#shadow)"/>
  <path d="M 20 18 Q 18 14 20 12 Q 22 14 22 18" fill="url(#redHair)"/>
  <path d="M 44 18 Q 46 14 44 12 Q 42 14 42 18" fill="url(#redHair)"/>
  <circle cx="28" cy="26" r="2.5" fill="#FFF"/>
  <circle cx="36" cy="26" r="2.5" fill="#FFF"/>
  <circle cx="28" cy="26" r="1.5" fill="#8B4513"/>
  <circle cx="36" cy="26" r="1.5" fill="#8B4513"/>
  <path d="M 28 32 Q 32 34 36 32" stroke="#FF6B6B" stroke-width="1.5" fill="none"/>
  <ellipse cx="26" cy="30" rx="2" ry="3" fill="#FFB6C1" opacity="0.6"/>
  <ellipse cx="38" cy="30" rx="2" ry="3" fill="#FFB6C1" opacity="0.6"/>
  <rect x="24" y="50" width="5" height="6" fill="#654321" filter="url(#shadow)"/>
  <rect x="35" y="50" width="5" height="6" fill="#654321" filter="url(#shadow)"/>
  <path d="M 20 34 L 18 38 L 16 42" stroke="#A9A9A9" stroke-width="3" stroke-linecap="round" filter="url(#shadow)"/>
  <path d="M 44 34 L 46 38 L 48 42" stroke="#A9A9A9" stroke-width="3" stroke-linecap="round" filter="url(#shadow)"/>
  <circle cx="16" cy="42" r="3" fill="#C0C0C0" filter="url(#shadow)"/>
  <circle cx="48" cy="42" r="3" fill="#C0C0C0" filter="url(#shadow)"/>
</svg>