<svg viewBox="0 0 64 64" xmlns="http://www.w3.org/2000/svg">
  <circle cx="32" cy="28" r="10" fill="#E6C3A0"/>
  <circle cx="28" cy="26" r="3" fill="#FF00FF"/>
  <circle cx="36" cy="26" r="3" fill="#FF00FF"/>
  <path d="M 26 32 Q 32 36 38 32" fill="#000"/>
  <path d="M 26 32 Q 32 34 38 32" fill="#8B0000"/>
  <path d="M 22 22 Q 24 16 28 18 M 40 18 Q 44 16 42 22" fill="#4B0082"/>
  <rect x="26" y="36" width="12" height="14" fill="#4B0082"/>
  <path d="M 44 28 L 52 24 L 50 30" fill="#E6C3A0"/>
  <path d="M 48 26 L 54 26 L 52 28 L 54 30 L 48 30" fill="#8B4513"/>
  <rect x="24" y="48" width="5" height="6" fill="#4B0082"/>
  <rect x="35" y="48" width="5" height="6" fill="#4B0082"/>
  <circle cx="22" cy="40" r="2" fill="#9370DB" opacity="0.6"/>
  <circle cx="42" cy="40" r="2" fill="#9370DB" opacity="0.6"/>
  <path d="M 26 20 L 28 14 Q 32 12 36 14 L 38 20" fill="#000"/>
  <circle cx="30" cy="16" r="2" fill="#4B0082"/>
</svg>