<svg viewBox="0 0 64 64" xmlns="http://www.w3.org/2000/svg">
  <defs>
    <linearGradient id="witchSkin" x1="0%" y1="0%" x2="0%" y2="100%">
      <stop offset="0%" style="stop-color:#98FB98"/>
      <stop offset="100%" style="stop-color:#6B8E23"/>
    </linearGradient>
    <linearGradient id="witchRobe" x1="0%" y1="0%" x2="0%" y2="100%">
      <stop offset="0%" style="stop-color:#6A5ACD"/>
      <stop offset="100%" style="stop-color:#4B0082"/>
    </linearGradient>
    <radialGradient id="magicPurple" cx="50%" cy="50%">
      <stop offset="0%" style="stop-color:#9370DB;stop-opacity:0.8"/>
      <stop offset="100%" style="stop-color:#8B008B;stop-opacity:0.3"/>
    </radialGradient>
    <filter id="shadow"><feDropShadow dx="2" dy="3" stdDeviation="2" flood-opacity="0.4"/></filter>
    <filter id="glow"><feGaussianBlur stdDeviation="1.5"/></filter>
  </defs>
  <ellipse cx="32" cy="58" rx="18" ry="3" fill="#000" opacity="0.3"/>
  <rect x="26" y="36" width="12" height="14" fill="url(#witchRobe)" filter="url(#shadow)"/>
  <circle cx="32" cy="28" r="10" fill="url(#witchSkin)" filter="url(#shadow)"/>
  <circle cx="28" cy="26" r="3" fill="#FF00FF"/>
  <circle cx="36" cy="26" r="3" fill="#FF00FF"/>
  <circle cx="28" cy="26" r="2" fill="#8B008B"/>
  <circle cx="36" cy="26" r="2" fill="#8B008B"/>
  <path d="M 26 32 Q 32 36 38 32" fill="#8B0000"/>
  <path d="M 26 32 Q 32 34 38 32" stroke="#4B0082" stroke-width="1.5" fill="none"/>
  <path d="M 22 22 Q 24 16 28 18" fill="#000"/>
  <path d="M 40 18 Q 44 16 42 22" fill="#000"/>
  <path d="M 26 20 L 28 14 Q 32 12 36 14 L 38 20 Z" fill="#4B0082" filter="url(#shadow)"/>
  <circle cx="30" cy="16" r="2" fill="#9370DB"/>
  <path d="M 44 28 L 52 24 L 50 30 Z" fill="url(#witchSkin)" filter="url(#shadow)"/>
  <path d="M 48 26 L 54 26 L 52 28 L 54 30 L 48 30 Z" fill="#8B4513"/>
  <rect x="24" y="48" width="5" height="6" fill="#4B0082" filter="url(#shadow)"/>
  <rect x="35" y="48" width="5" height="6" fill="#4B0082" filter="url(#shadow)"/>
  <circle cx="22" cy="40" r="3" fill="url(#magicPurple)" filter="url(#glow)"/>
  <circle cx="42" cy="40" r="3" fill="url(#magicPurple)" filter="url(#glow)"/>
  <circle cx="22" cy="40" r="2" fill="#9370DB" opacity="0.7"/>
  <circle cx="42" cy="40" r="2" fill="#9370DB" opacity="0.7"/>
</svg>