<svg viewBox="0 0 64 64" xmlns="http://www.w3.org/2000/svg">
  <defs>
    <linearGradient id="metalGrad" x1="0%" y1="0%" x2="0%" y2="100%">
      <stop offset="0%" style="stop-color:#C0C0C0"/>
      <stop offset="50%" style="stop-color:#808080"/>
      <stop offset="100%" style="stop-color:#606060"/>
    </linearGradient>
    <radialGradient id="shineGrad" cx="30%" cy="30%">
      <stop offset="0%" style="stop-color:#fff;stop-opacity:0.6"/>
      <stop offset="100%" style="stop-color:#fff;stop-opacity:0"/>
    </radialGradient>
    <filter id="shadow"><feDropShadow dx="2" dy="3" stdDeviation="2" flood-opacity="0.4"/></filter>
  </defs>
  <ellipse cx="32" cy="52" rx="18" ry="4" fill="#000" opacity="0.2"/>
  <rect x="28" y="32" width="8" height="18" fill="url(#metalGrad)" filter="url(#shadow)"/>
  <circle cx="32" cy="24" r="10" fill="url(#metalGrad)" filter="url(#shadow)"/>
  <circle cx="32" cy="24" r="10" fill="url(#shineGrad)"/>
  <rect x="30" y="20" width="4" height="3" fill="#000"/>
  <circle cx="30" cy="25" r="1.5" fill="#4169E1"/>
  <circle cx="34" cy="25" r="1.5" fill="#4169E1"/>
  <rect x="24" y="34" width="6" height="12" rx="2" fill="url(#metalGrad)" filter="url(#shadow)"/>
  <rect x="34" y="34" width="6" height="12" rx="2" fill="url(#metalGrad)" filter="url(#shadow)"/>
  <ellipse cx="20" cy="36" rx="4" ry="8" fill="#FFD700" filter="url(#shadow)"/>
  <path d="M 20 36 Q 16 36 14 40" stroke="#DAA520" stroke-width="2" fill="none"/>
  <rect x="30" y="14" width="4" height="8" fill="#DC143C" filter="url(#shadow)"/>
  <path d="M 32 14 L 28 10 L 32 8 L 36 10 Z" fill="#DC143C" filter="url(#shadow)"/>
  <circle cx="32" cy="38" r="4" fill="#FFD700" opacity="0.8"/>
</svg>