<svg viewBox="0 0 64 64" xmlns="http://www.w3.org/2000/svg">
  <defs>
    <linearGradient id="crlGrad" x1="0%" y1="0%" x2="100%" y2="100%">
      <stop offset="0%" style="stop-color:#FFD700;stop-opacity:1" />
      <stop offset="100%" style="stop-color:#FFA500;stop-opacity:1" />
    </linearGradient>
  </defs>
  <rect x="8" y="8" width="48" height="48" fill="#1E3A8A"/>
  <rect x="10" y="10" width="44" height="44" fill="url(#crlGrad)" opacity="0.2"/>
  <path d="M 32 16 L 38 22 L 46 20 L 42 28 L 48 34 L 40 36 L 38 44 L 32 38 L 26 44 L 24 36 L 16 34 L 22 28 L 18 20 L 26 22 Z" fill="#FFD700"/>
  <circle cx="32" cy="30" r="10" fill="#1E3A8A"/>
  <text x="32" y="27" font-size="8" text-anchor="middle" fill="#FFD700" font-weight="bold">CRL</text>
  <text x="32" y="52" font-size="10" text-anchor="middle" fill="#FFD700" font-weight="bold">2025</text>
  <rect x="6" y="6" width="52" height="52" fill="none" stroke="#FFD700" stroke-width="2"/>
  <circle cx="16" cy="16" r="2" fill="#FFF"/>
  <circle cx="48" cy="16" r="2" fill="#FFF"/>
  <circle cx="16" cy="48" r="2" fill="#FFF"/>
  <circle cx="48" cy="48" r="2" fill="#FFF"/>
</svg>