<svg viewBox="0 0 64 64" xmlns="http://www.w3.org/2000/svg">
  <defs>
    <linearGradient id="dragonGreen" x1="0%" y1="0%" x2="0%" y2="100%">
      <stop offset="0%" style="stop-color:#90EE90"/>
      <stop offset="50%" style="stop-color:#3CB371"/>
      <stop offset="100%" style="stop-color:#228B22"/>
    </linearGradient>
    <radialGradient id="fireGlow" cx="50%" cy="50%">
      <stop offset="0%" style="stop-color:#FFD700;stop-opacity:0.8"/>
      <stop offset="50%" style="stop-color:#FF8C00;stop-opacity:0.5"/>
      <stop offset="100%" style="stop-color:#FF4500;stop-opacity:0.2"/>
    </radialGradient>
    <filter id="dragonShadow"><feDropShadow dx="2" dy="4" stdDeviation="3" flood-opacity="0.5"/></filter>
    <filter id="glow"><feGaussianBlur stdDeviation="1.5"/></filter>
  </defs>
  <ellipse cx="32" cy="56" rx="20" ry="4" fill="#000" opacity="0.3"/>
  <ellipse cx="32" cy="36" rx="16" ry="18" fill="url(#dragonGreen)" filter="url(#dragonShadow)"/>
  <circle cx="26" cy="30" r="4" fill="#FFF"/>
  <circle cx="38" cy="30" r="4" fill="#FFF"/>
  <circle cx="26" cy="31" r="2" fill="#000"/>
  <circle cx="38" cy="31" r="2" fill="#000"/>
  <path d="M 26 38 Q 32 42 38 38" stroke="#228B22" stroke-width="2" fill="none"/>
  <path d="M 18 28 L 14 24 L 16 28 L 14 32 L 18 30 Z" fill="url(#dragonGreen)" filter="url(#dragonShadow)"/>
  <path d="M 46 28 L 50 24 L 48 28 L 50 32 L 46 30 Z" fill="url(#dragonGreen)" filter="url(#dragonShadow)"/>
  <ellipse cx="32" cy="20" rx="10" ry="8" fill="url(#dragonGreen)" filter="url(#dragonShadow)"/>
  <path d="M 28 16 L 26 12 L 28 14 M 36 14 L 38 12 L 36 16" fill="#228B22"/>
  <path d="M 38 40 L 42 44 L 46 50" stroke="url(#fireGlow)" stroke-width="3" stroke-linecap="round" filter="url(#glow)"/>
  <circle cx="46" cy="50" r="3" fill="#FFD700" opacity="0.8" filter="url(#glow)"/>
  <circle cx="44" cy="48" r="2" fill="#FF8C00" opacity="0.6"/>
  <ellipse cx="22" cy="34" rx="2" ry="3" fill="#FF6B6B" opacity="0.5"/>
  <ellipse cx="42" cy="34" rx="2" ry="3" fill="#FF6B6B" opacity="0.5"/>
  <path d="M 28 48 L 24 52 L 22 48 M 36 48 L 40 52 L 42 48" fill="#228B22"/>
</svg>