<svg viewBox="0 0 64 64" xmlns="http://www.w3.org/2000/svg">
  <defs>
    <linearGradient id="pigGrad" x1="0%" y1="0%" x2="0%" y2="100%">
      <stop offset="0%" style="stop-color:#FFB6C1"/>
      <stop offset="50%" style="stop-color:#FF69B4"/>
      <stop offset="100%" style="stop-color:#FF1493"/>
    </linearGradient>
    <radialGradient id="snoutGrad" cx="50%" cy="50%">
      <stop offset="0%" style="stop-color:#FF69B4"/>
      <stop offset="100%" style="stop-color:#C71585"/>
    </radialGradient>
    <filter id="pigShadow"><feDropShadow dx="2" dy="4" stdDeviation="3" flood-opacity="0.4"/></filter>
    <filter id="sparkle"><feGaussianBlur stdDeviation="1"/></filter>
  </defs>
  <ellipse cx="32" cy="56" rx="22" ry="4" fill="#000" opacity="0.3"/>
  <ellipse cx="32" cy="36" rx="18" ry="20" fill="url(#pigGrad)" filter="url(#pigShadow)"/>
  <ellipse cx="20" cy="26" rx="6" ry="7" fill="url(#pigGrad)" filter="url(#pigShadow)"/>
  <ellipse cx="44" cy="26" rx="6" ry="7" fill="url(#pigGrad)" filter="url(#pigShadow)"/>
  <circle cx="24" cy="32" r="4" fill="#FFF"/>
  <circle cx="40" cy="32" r="4" fill="#FFF"/>
  <circle cx="24" cy="33" r="2" fill="#000"/>
  <circle cx="40" cy="33" r="2" fill="#000"/>
  <ellipse cx="32" cy="42" rx="8" ry="6" fill="url(#snoutGrad)"/>
  <circle cx="29" cy="42" r="2" fill="#8B0000"/>
  <circle cx="35" cy="42" r="2" fill="#8B0000"/>
  <path d="M 26 48 Q 32 52 38 48" stroke="#FF1493" stroke-width="2" fill="none"/>
  <path d="M 16 20 L 14 16 L 18 18 M 48 18 L 50 16 L 46 20" fill="#FF69B4" filter="url(#pigShadow)"/>
  <ellipse cx="22" cy="36" rx="2" ry="3" fill="#FF6B6B" opacity="0.5"/>
  <ellipse cx="42" cy="36" rx="2" ry="3" fill="#FF6B6B" opacity="0.5"/>
  <path d="M 48 38 Q 52 40 50 44" stroke="#FFD700" stroke-width="2" stroke-linecap="round" filter="url(#sparkle)"/>
  <circle cx="50" cy="44" r="2" fill="#FFD700" opacity="0.8" filter="url(#sparkle)"/>
  <path d="M 16 38 Q 12 40 14 44" stroke="#FFD700" stroke-width="2" stroke-linecap="round" filter="url(#sparkle)"/>
  <circle cx="14" cy="44" r="2" fill="#FFD700" opacity="0.8" filter="url(#sparkle)"/>
</svg>