<svg viewBox="0 0 64 64" xmlns="http://www.w3.org/2000/svg">
  <circle cx="16" cy="32" r="6" fill="#90EE90"/>
  <circle cx="26" cy="26" r="6" fill="#90EE90"/>
  <circle cx="32" cy="32" r="6" fill="#90EE90"/>
  <circle cx="38" cy="26" r="6" fill="#90EE90"/>
  <circle cx="48" cy="32" r="6" fill="#90EE90"/>
  <circle cx="14" cy="31" r="2" fill="#000"/>
  <circle cx="24" cy="25" r="2" fill="#000"/>
  <circle cx="30" cy="31" r="2" fill="#000"/>
  <circle cx="36" cy="25" r="2" fill="#000"/>
  <circle cx="46" cy="31" r="2" fill="#000"/>
  <circle cx="16" cy="42" r="4" fill="#000"/>
  <circle cx="26" cy="36" r="4" fill="#000"/>
  <circle cx="32" cy="42" r="4" fill="#000"/>
  <circle cx="38" cy="36" r="4" fill="#000"/>
  <circle cx="48" cy="42" r="4" fill="#000"/>
  <circle cx="16" cy="42" r="2" fill="#FF4500"/>
  <circle cx="26" cy="36" r="2" fill="#FF4500"/>
  <circle cx="32" cy="42" r="2" fill="#FF4500"/>
  <circle cx="38" cy="36" r="2" fill="#FF4500"/>
  <circle cx="48" cy="42" r="2" fill="#FF4500"/>
</svg>