<svg viewBox="0 0 64 64" xmlns="http://www.w3.org/2000/svg">
  <ellipse cx="32" cy="36" rx="14" ry="12" fill="#4682B4"/>
  <circle cx="32" cy="24" r="9" fill="#4682B4"/>
  <circle cx="29" cy="22" r="2" fill="#FFFF00"/>
  <circle cx="35" cy="22" r="2" fill="#FFFF00"/>
  <path d="M 29 28 Q 32 30 35 28" stroke="#000" stroke-width="2" fill="none"/>
  <path d="M 14 32 Q 10 28 8 32 Q 10 36 14 32" fill="#87CEEB"/>
  <path d="M 50 32 Q 54 28 56 32 Q 54 36 50 32" fill="#87CEEB"/>
  <path d="M 32 48 L 28 54 L 32 52 L 36 54 Z" fill="#1E90FF"/>
  <path d="M 40 24 L 46 18 L 44 26 L 48 20 L 46 28" stroke="#FFFF00" stroke-width="2" fill="none"/>
  <circle cx="42" cy="22" r="3" fill="#FFFF00" opacity="0.5"/>
  <path d="M 18 28 L 12 24 L 14 30 L 10 26 L 12 32" stroke="#FFFF00" stroke-width="2" fill="none"/>
  <circle cx="16" cy="28" r="3" fill="#FFFF00" opacity="0.5"/>
  <path d="M 24 18 L 26 12 L 28 18 M 36 18 L 38 12 L 40 18" fill="#1E3A8A"/>
</svg>