<svg xmlns="http://www.w3.org/2000/svg" viewBox="0 0 64 64">
  <ellipse cx="38" cy="54" rx="20" ry="5" fill="#4a4a4a" opacity="0.3"/>
  <ellipse cx="42" cy="38" rx="14" ry="10" fill="#6080c0"/>
  <circle cx="36" cy="30" r="10" fill="#7090d0"/>
  <ellipse cx="34" cy="28" rx="2" ry="3" fill="#4a6a8a"/>
  <ellipse cx="38" cy="28" rx="2" ry="3" fill="#4a6a8a"/>
  <path d="M 28 26 L 24 22 L 26 26 L 24 28 Z" fill="#7090d0"/>
  <path d="M 44 26 L 48 22 L 46 26 L 48 28 Z" fill="#7090d0"/>
  <path d="M 34 36 Q 36 38 38 36" stroke="#5070b0" fill="none" stroke-width="1.5"/>
  <path d="M 50 32 L 54 36 L 50 40 L 46 36 Z" fill="#8aa0e0"/>
  <path d="M 54 38 L 58 42 L 54 46" fill="#8aa0e0"/>
  <path d="M 20 42 L 16 38 L 20 34 L 24 38" fill="#90a0d0" opacity="0.7"/>
  <path d="M 10 20 L 14 16 L 12 20 L 16 18 L 12 22 L 16 20" fill="#f0e040" opacity="0.8"/>
</svg>