<svg viewBox="0 0 64 64" xmlns="http://www.w3.org/2000/svg">
  <circle cx="32" cy="32" r="18" fill="#98FB98"/>
  <circle cx="32" cy="32" r="14" fill="#90EE90"/>
  <circle cx="32" cy="32" r="10" fill="#00FF7F"/>
  <circle cx="29" cy="30" r="2" fill="#000"/>
  <circle cx="35" cy="30" r="2" fill="#000"/>
  <path d="M 29 36 Q 32 38 35 36" stroke="#000" stroke-width="2" fill="none"/>
  <path d="M 32 24 L 32 18 M 32 22 L 28 22 M 32 22 L 36 22" stroke="#FF69B4" stroke-width="2"/>
  <circle cx="32" cy="18" r="2" fill="#FF1493"/>
  <circle cx="22" cy="28" r="2" fill="#FFB6C1" opacity="0.7"/>
  <circle cx="42" cy="28" r="2" fill="#FFB6C1" opacity="0.7"/>
  <circle cx="26" cy="40" r="2" fill="#FFB6C1" opacity="0.7"/>
  <circle cx="38" cy="40" r="2" fill="#FFB6C1" opacity="0.7"/>
  <path d="M 18 24 L 22 26 M 46 24 L 42 26 M 20 42 L 24 40 M 44 42 L 40 40" stroke="#98FB98" stroke-width="2"/>
</svg>