<svg viewBox="0 0 64 64" xmlns="http://www.w3.org/2000/svg">
  <defs>
    <linearGradient id="boneWhite" x1="0%" y1="0%" x2="0%" y2="100%">
      <stop offset="0%" style="stop-color:#FFFFFF"/>
      <stop offset="50%" style="stop-color:#F5F5F5"/>
      <stop offset="100%" style="stop-color:#E0E0E0"/>
    </linearGradient>
    <radialGradient id="boneGlow" cx="50%" cy="50%">
      <stop offset="0%" style="stop-color:#FFFFFF;stop-opacity:0.8"/>
      <stop offset="100%" style="stop-color:#D3D3D3;stop-opacity:0.3"/>
    </radialGradient>
    <filter id="shadow"><feDropShadow dx="2" dy="3" stdDeviation="2" flood-opacity="0.4"/></filter>
    <filter id="glow"><feGaussianBlur stdDeviation="1"/></filter>
  </defs>
  <ellipse cx="32" cy="56" rx="18" ry="3" fill="#000" opacity="0.3"/>
  <circle cx="32" cy="20" r="8" fill="url(#boneWhite)" filter="url(#shadow)"/>
  <circle cx="29" cy="18" r="2.5" fill="#000"/>
  <circle cx="35" cy="18" r="2.5" fill="#000"/>
  <path d="M 28 24 L 36 24" stroke="#000" stroke-width="2"/>
  <rect x="28" y="26" width="8" height="12" rx="2" fill="url(#boneWhite)" filter="url(#shadow)"/>
  <rect x="20" y="30" width="10" height="3" rx="1" fill="#E0E0E0" filter="url(#shadow)"/>
  <rect x="34" y="30" width="10" height="3" rx="1" fill="#E0E0E0" filter="url(#shadow)"/>
  <rect x="26" y="36" width="4" height="12" fill="#D3D3D3" filter="url(#shadow)"/>
  <rect x="34" y="36" width="4" height="12" fill="#D3D3D3" filter="url(#shadow)"/>
  <circle cx="28" cy="48" r="3" fill="url(#boneGlow)" filter="url(#glow)"/>
  <circle cx="36" cy="48" r="3" fill="url(#boneGlow)" filter="url(#glow)"/>
  <path d="M 18 32 L 14 36" stroke="#E0E0E0" stroke-width="3" stroke-linecap="round" filter="url(#shadow)"/>
  <path d="M 46 32 L 50 36" stroke="#E0E0E0" stroke-width="3" stroke-linecap="round" filter="url(#shadow)"/>
  <circle cx="14" cy="36" r="2.5" fill="url(#boneWhite)" filter="url(#shadow)"/>
  <circle cx="50" cy="36" r="2.5" fill="url(#boneWhite)" filter="url(#shadow)"/>
  <path d="M 30 40 L 28 44 M 34 40 L 36 44" stroke="#C0C0C0" stroke-width="2"/>
  <circle cx="28" cy="48" r="2" fill="#FFF"/>
  <circle cx="36" cy="48" r="2" fill="#FFF"/>
</svg>