<svg xmlns="http://www.w3.org/2000/svg" viewBox="0 0 64 64">
  <ellipse cx="32" cy="54" rx="28" ry="4" fill="#424242" opacity="0.3"/>
  <circle cx="16" cy="22" r="5" fill="#EEEEEE" stroke="#9E9E9E" stroke-width="1"/>
  <circle cx="26" cy="20" r="5" fill="#EEEEEE" stroke="#9E9E9E" stroke-width="1"/>
  <circle cx="32" cy="18" r="5" fill="#EEEEEE" stroke="#9E9E9E" stroke-width="1"/>
  <circle cx="38" cy="20" r="5" fill="#EEEEEE" stroke="#9E9E9E" stroke-width="1"/>
  <circle cx="48" cy="22" r="5" fill="#EEEEEE" stroke="#9E9E9E" stroke-width="1"/>
  <circle cx="20" cy="34" r="5" fill="#EEEEEE" stroke="#9E9E9E" stroke-width="1"/>
  <circle cx="32" cy="32" r="5" fill="#EEEEEE" stroke="#9E9E9E" stroke-width="1"/>
  <circle cx="44" cy="34" r="5" fill="#EEEEEE" stroke="#9E9E9E" stroke-width="1"/>
  <circle cx="14" cy="20" r="1.5" fill="#212121"/>
  <circle cx="18" cy="20" r="1.5" fill="#212121"/>
  <circle cx="24" cy="18" r="1.5" fill="#212121"/>
  <circle cx="28" cy="18" r="1.5" fill="#212121"/>
  <circle cx="30" cy="16" r="1.5" fill="#212121"/>
  <circle cx="34" cy="16" r="1.5" fill="#212121"/>
  <circle cx="36" cy="18" r="1.5" fill="#212121"/>
  <circle cx="40" cy="18" r="1.5" fill="#212121"/>
  <circle cx="46" cy="20" r="1.5" fill="#212121"/>
  <circle cx="50" cy="20" r="1.5" fill="#212121"/>
  <path d="M 14,26 L 16,28 L 18,26" stroke="#EEEEEE" stroke-width="1.5" fill="none"/>
  <path d="M 24,24 L 26,26 L 28,24 L 30,26" stroke="#EEEEEE" stroke-width="1.5" fill="none"/>
  <path d="M 30,22 L 32,24 L 34,22 L 36,24" stroke="#EEEEEE" stroke-width="1.5" fill="none"/>
  <path d="M 36,24 L 38,26 L 40,24 L 42,26" stroke="#EEEEEE" stroke-width="1.5" fill="none"/>
  <path d="M 46,26 L 48,28 L 50,26" stroke="#EEEEEE" stroke-width="1.5" fill="none"/>
  <rect x="14" y="30" width="2" height="8" fill="#EEEEEE"/>
  <rect x="24" y="26" width="2" height="10" fill="#EEEEEE"/>
  <rect x="30" y="24" width="2" height="12" fill="#EEEEEE"/>
  <rect x="38" y="26" width="2" height="10" fill="#EEEEEE"/>
  <rect x="48" y="30" width="2" height="8" fill="#EEEEEE"/>
  <rect x="18" y="40" width="2" height="8" fill="#EEEEEE"/>
  <rect x="30" y="38" width="2" height="10" fill="#EEEEEE"/>
  <rect x="42" y="40" width="2" height="8" fill="#EEEEEE"/>
</svg>