<svg viewBox="0 0 64 64" xmlns="http://www.w3.org/2000/svg">
  <circle cx="20" cy="32" r="8" fill="#90EE90"/>
  <circle cx="32" cy="28" r="8" fill="#90EE90"/>
  <circle cx="44" cy="32" r="8" fill="#90EE90"/>
  <circle cx="18" cy="30" r="2" fill="#000"/>
  <circle cx="30" cy="26" r="2" fill="#000"/>
  <circle cx="42" cy="30" r="2" fill="#000"/>
  <path d="M 17 35 Q 20 37 23 35" stroke="#000" stroke-width="1" fill="none"/>
  <path d="M 29 31 Q 32 33 35 31" stroke="#000" stroke-width="1" fill="none"/>
  <path d="M 41 35 Q 44 37 47 35" stroke="#000" stroke-width="1" fill="none"/>
  <line x1="20" y1="40" x2="20" y2="52" stroke="#8B4513" stroke-width="2"/>
  <line x1="32" y1="36" x2="32" y2="48" stroke="#8B4513" stroke-width="2"/>
  <line x1="44" y1="40" x2="44" y2="52" stroke="#8B4513" stroke-width="2"/>
  <polygon points="20,52 18,56 22,56" fill="#A0522D"/>
  <polygon points="32,48 30,52 34,52" fill="#A0522D"/>
  <polygon points="44,52 42,56 46,56" fill="#A0522D"/>
</svg>