<svg viewBox="0 0 64 64" xmlns="http://www.w3.org/2000/svg">
  <circle cx="32" cy="32" r="16" fill="#90EE90"/>
  <circle cx="28" cy="28" r="4" fill="#FFF"/>
  <circle cx="36" cy="28" r="4" fill="#FFF"/>
  <circle cx="28" cy="29" r="2" fill="#000"/>
  <circle cx="36" cy="29" r="2" fill="#000"/>
  <path d="M 26 38 Q 32 34 38 38" stroke="#000" stroke-width="2" fill="none"/>
  <path d="M 24 34 L 22 42 L 20 50" stroke="#00BFFF" stroke-width="3" stroke-linecap="round"/>
  <path d="M 40 34 L 42 42 L 44 50" stroke="#00BFFF" stroke-width="3" stroke-linecap="round"/>
  <circle cx="20" cy="50" r="3" fill="#00BFFF" opacity="0.6"/>
  <circle cx="44" cy="50" r="3" fill="#00BFFF" opacity="0.6"/>
  <circle cx="22" cy="46" r="2" fill="#00BFFF" opacity="0.6"/>
  <circle cx="42" cy="46" r="2" fill="#00BFFF" opacity="0.6"/>
  <path d="M 24 22 L 26 16 L 28 20 M 36 20 L 38 16 L 40 22" fill="#228B22"/>
  <circle cx="32" cy="32" r="18" fill="none" stroke="#228B22" stroke-width="2"/>
</svg>