<svg viewBox="0 0 64 64" xmlns="http://www.w3.org/2000/svg">
  <defs>
    <linearGradient id="goblinSkin" x1="0%" y1="0%" x2="0%" y2="100%">
      <stop offset="0%" style="stop-color:#90EE90"/>
      <stop offset="100%" style="stop-color:#32CD32"/>
    </linearGradient>
    <filter id="shadowGob"><feDropShadow dx="1" dy="2" stdDeviation="2" flood-opacity="0.3"/></filter>
    <filter id="tearGlow"><feGaussianBlur stdDeviation="1"/></filter>
  </defs>
  <ellipse cx="32" cy="54" rx="16" ry="3" fill="#000" opacity="0.2"/>
  <ellipse cx="32" cy="32" rx="18" ry="20" fill="url(#goblinSkin)" filter="url(#shadowGob)"/>
  <circle cx="26" cy="28" r="5" fill="#FFF"/>
  <circle cx="38" cy="28" r="5" fill="#FFF"/>
  <circle cx="26" cy="30" r="3" fill="#000"/>
  <circle cx="38" cy="30" r="3" fill="#000"/>
  <path d="M 24 40 Q 32 36 40 40" stroke="#000" stroke-width="2" fill="none"/>
  <path d="M 22 36 L 20 44 Q 18 50 16 56" stroke="#00BFFF" stroke-width="4" stroke-linecap="round" filter="url(#tearGlow)"/>
  <path d="M 42 36 L 44 44 Q 46 50 48 56" stroke="#00BFFF" stroke-width="4" stroke-linecap="round" filter="url(#tearGlow)"/>
  <circle cx="16" cy="56" r="4" fill="#00BFFF" opacity="0.7" filter="url(#tearGlow)"/>
  <circle cx="48" cy="56" r="4" fill="#00BFFF" opacity="0.7" filter="url(#tearGlow)"/>
  <circle cx="18" cy="52" r="3" fill="#00BFFF" opacity="0.6"/>
  <circle cx="46" cy="52" r="3" fill="#00BFFF" opacity="0.6"/>
  <circle cx="20" cy="48" r="2" fill="#00BFFF" opacity="0.5"/>
  <circle cx="44" cy="48" r="2" fill="#00BFFF" opacity="0.5"/>
  <path d="M 22 22 L 26 16 L 28 20 M 36 20 L 38 16 L 42 22" fill="#228B22" filter="url(#shadowGob)"/>
  <ellipse cx="20" cy="34" rx="2" ry="3" fill="#FF6B6B" opacity="0.6"/>
  <ellipse cx="44" cy="34" rx="2" ry="3" fill="#FF6B6B" opacity="0.6"/>
</svg>