<svg viewBox="0 0 64 64" xmlns="http://www.w3.org/2000/svg">
  <circle cx="32" cy="26" r="8" fill="#FFE4B5"/>
  <circle cx="30" cy="24" r="2" fill="#000"/>
  <circle cx="34" cy="24" r="2" fill="#000"/>
  <path d="M 30 30 Q 32 32 34 30" stroke="#000" stroke-width="2" fill="none"/>
  <rect x="26" y="32" width="12" height="14" fill="#8B4513"/>
  <path d="M 26 22 Q 28 18 32 18 Q 36 18 38 22" fill="#A0522D"/>
  <rect x="22" y="44" width="5" height="8" fill="#654321"/>
  <rect x="37" y="44" width="5" height="8" fill="#654321"/>
  <path d="M 38 28 L 50 18" stroke="#654321" stroke-width="3"/>
  <circle cx="50" cy="18" r="5" fill="#808080"/>
  <circle cx="50" cy="18" r="3" fill="#A9A9A9"/>
  <path d="M 20 32 L 18 38 L 22 36 M 44 32 L 46 38 L 42 36" fill="#8B4513"/>
  <circle cx="48" cy="14" r="2" fill="#696969"/>
  <circle cx="52" cy="16" r="2" fill="#696969"/>
</svg>