<svg xmlns="http://www.w3.org/2000/svg" viewBox="0 0 64 64">
  <ellipse cx="32" cy="54" rx="20" ry="5" fill="#4a4a4a" opacity="0.3"/>
  <rect x="26" y="32" width="12" height="22" fill="#c04040" rx="2"/>
  <circle cx="32" cy="24" r="9" fill="#f4c8a4"/>
  <path d="M 24 16 L 22 24 L 28 20 Z" fill="#8a5a2a"/>
  <path d="M 40 16 L 42 24 L 36 20 Z" fill="#8a5a2a"/>
  <ellipse cx="29" cy="23" rx="2" ry="2.5" fill="#4a2a2a"/>
  <ellipse cx="35" cy="23" rx="2" ry="2.5" fill="#4a2a2a"/>
  <path d="M 28 28 Q 32 29 36 28" stroke="#c08060" fill="none" stroke-width="1"/>
  <rect x="22" y="36" width="6" height="14" fill="#a03030" rx="1"/>
  <rect x="36" y="36" width="6" height="14" fill="#a03030" rx="1"/>
  <rect x="40" y="18" width="16" height="4" fill="#8a6a4a" rx="1"/>
  <rect x="54" y="14" width="4" height="12" fill="#6a4a2a" rx="1"/>
  <path d="M 42 14 L 44 10 L 46 14 L 48 12 L 50 16 L 52 12 L 54 16" fill="#b0b0b0"/>
</svg>