<svg xmlns="http://www.w3.org/2000/svg" viewBox="0 0 64 64">
  <ellipse cx="32" cy="54" rx="18" ry="5" fill="#4a4a4a" opacity="0.3"/>
  <path d="M 26 34 L 26 52 L 38 52 L 38 34 Z" fill="#4080c0"/>
  <circle cx="32" cy="26" r="9" fill="#f4c8a4"/>
  <path d="M 24 18 L 26 12 L 28 18 L 30 10 L 32 18 L 34 10 L 36 18 L 38 12 L 40 18" fill="#60a0d0"/>
  <ellipse cx="29" cy="25" rx="2" ry="2.5" fill="#4a2a2a"/>
  <ellipse cx="35" cy="25" rx="2" ry="2.5" fill="#4a2a2a"/>
  <circle cx="16" cy="36" r="6" fill="#a0d4f4" opacity="0.7"/>
  <circle cx="16" cy="36" r="3" fill="#c0e4ff"/>
  <path d="M 14 30 L 10 28 L 12 32 L 8 30 L 14 34" fill="#c0e4ff" opacity="0.8"/>
  <circle cx="20" cy="42" r="3" fill="#c0e4ff" opacity="0.6"/>
  <circle cx="12" cy="44" r="2.5" fill="#c0e4ff" opacity="0.6"/>
</svg>