<svg viewBox="0 0 64 64" xmlns="http://www.w3.org/2000/svg">
  <defs>
    <linearGradient id="wizardHat" x1="0%" y1="0%" x2="0%" y2="100%">
      <stop offset="0%" style="stop-color:#9370DB"/>
      <stop offset="50%" style="stop-color:#8B008B"/>
      <stop offset="100%" style="stop-color:#4B0082"/>
    </linearGradient>
    <linearGradient id="wizardRobe" x1="0%" y1="0%" x2="0%" y2="100%">
      <stop offset="0%" style="stop-color:#6A5ACD"/>
      <stop offset="100%" style="stop-color:#483D8B"/>
    </linearGradient>
    <radialGradient id="questionGlow" cx="50%" cy="50%">
      <stop offset="0%" style="stop-color:#FFD700;stop-opacity:0.8"/>
      <stop offset="100%" style="stop-color:#FFA500;stop-opacity:0.3"/>
    </radialGradient>
    <filter id="shadow"><feDropShadow dx="2" dy="3" stdDeviation="2" flood-opacity="0.4"/></filter>
    <filter id="confuse"><feGaussianBlur stdDeviation="1"/></filter>
  </defs>
  <ellipse cx="32" cy="58" rx="18" ry="3" fill="#000" opacity="0.3"/>
  <rect x="26" y="34" width="12" height="14" fill="url(#wizardRobe)" filter="url(#shadow)"/>
  <circle cx="32" cy="28" r="8" fill="#FFE4B5" filter="url(#shadow)"/>
  <circle cx="30" cy="26" r="2.5" fill="#000"/>
  <circle cx="34" cy="26" r="2.5" fill="#000"/>
  <path d="M 30 32 L 34 32" stroke="#8B4513" stroke-width="2"/>
  <path d="M 26 22 Q 28 16 32 14 Q 36 16 38 22" fill="url(#wizardHat)" filter="url(#shadow)"/>
  <circle cx="32" cy="12" r="3" fill="#FFD700"/>
  <path d="M 30 12 L 28 8 M 34 12 L 36 8" stroke="#FFD700" stroke-width="1.5"/>
  <path d="M 38 34 L 46 32 L 44 38 Z" fill="url(#wizardRobe)" filter="url(#shadow)"/>
  <circle cx="44" cy="34" r="3" fill="#8B008B"/>
  <rect x="24" y="46" width="5" height="6" fill="#4B0082" filter="url(#shadow)"/>
  <rect x="35" y="46" width="5" height="6" fill="#4B0082" filter="url(#shadow)"/>
  <circle cx="22" cy="16" r="5" fill="url(#questionGlow)" filter="url(#confuse)"/>
  <text x="18" y="20" font-size="10" fill="#000" font-weight="bold">?</text>
  <circle cx="44" cy="20" r="4" fill="url(#questionGlow)" filter="url(#confuse)"/>
  <text x="41" y="23" font-size="8" fill="#000" font-weight="bold">?</text>
  <path d="M 42 28 L 44 24 L 46 28" fill="#FFE4B5" filter="url(#shadow)"/>
  <ellipse cx="24" cy="30" rx="2" ry="3" fill="#FF6B6B" opacity="0.4"/>
  <ellipse cx="40" cy="30" rx="2" ry="3" fill="#FF6B6B" opacity="0.4"/>
  <path d="M 20 12 Q 18 10 16 12 M 48 16 Q 50 14 52 16" stroke="#FFA500" stroke-width="1.5" filter="url(#confuse)"/>
</svg>