<svg viewBox="0 0 64 64" xmlns="http://www.w3.org/2000/svg">
  <g>
    <circle cx="22" cy="24" r="4" fill="#4B0082"/>
    <path d="M 14 24 Q 16 20 18 24 Q 16 26 14 24" fill="#8B008B"/>
    <path d="M 26 24 Q 28 20 30 24 Q 28 26 26 24" fill="#8B008B"/>
    <circle cx="21" cy="23" r="1" fill="#FF0000"/>
  </g>
  <g>
    <circle cx="32" cy="20" r="4" fill="#4B0082"/>
    <path d="M 24 20 Q 26 16 28 20 Q 26 22 24 20" fill="#8B008B"/>
    <path d="M 36 20 Q 38 16 40 20 Q 38 22 36 20" fill="#8B008B"/>
    <circle cx="31" cy="19" r="1" fill="#FF0000"/>
  </g>
  <g>
    <circle cx="42" cy="28" r="4" fill="#4B0082"/>
    <path d="M 34 28 Q 36 24 38 28 Q 36 30 34 28" fill="#8B008B"/>
    <path d="M 46 28 Q 48 24 50 28 Q 48 30 46 28" fill="#8B008B"/>
    <circle cx="41" cy="27" r="1" fill="#FF0000"/>
  </g>
  <g>
    <circle cx="26" cy="38" r="4" fill="#4B0082"/>
    <path d="M 18 38 Q 20 34 22 38 Q 20 40 18 38" fill="#8B008B"/>
    <path d="M 30 38 Q 32 34 34 38 Q 32 40 30 38" fill="#8B008B"/>
    <circle cx="25" cy="37" r="1" fill="#FF0000"/>
  </g>
  <g>
    <circle cx="38" cy="42" r="4" fill="#4B0082"/>
    <path d="M 30 42 Q 32 38 34 42 Q 32 44 30 42" fill="#8B008B"/>
    <path d="M 42 42 Q 44 38 46 42 Q 44 44 42 42" fill="#8B008B"/>
    <circle cx="37" cy="41" r="1" fill="#FF0000"/>
  </g>
</svg>