<svg viewBox="0 0 64 64" xmlns="http://www.w3.org/2000/svg">
  <circle cx="22" cy="26" r="8" fill="#FFA500"/>
  <circle cx="32" cy="30" r="9" fill="#4682B4"/>
  <circle cx="42" cy="26" r="8" fill="#FFA500"/>
  <circle cx="20" cy="24" r="2" fill="#000"/>
  <circle cx="30" cy="28" r="2" fill="#000"/>
  <circle cx="40" cy="24" r="2" fill="#000"/>
  <path d="M 19 30 Q 22 32 25 30" stroke="#000" stroke-width="1" fill="none"/>
  <path d="M 29 34 Q 32 36 35 34" stroke="#000" stroke-width="1" fill="none"/>
  <path d="M 39 30 Q 42 32 45 30" stroke="#000" stroke-width="1" fill="none"/>
  <rect x="18" y="33" width="8" height="10" fill="#FF6347"/>
  <rect x="28" y="38" width="8" height="12" fill="#4169E1"/>
  <rect x="38" y="33" width="8" height="10" fill="#FF6347"/>
  <path d="M 18 20 L 26 20 L 22 16 Z M 38 20 L 46 20 L 42 16 Z" fill="#8B4513"/>
  <circle cx="32" cy="24" r="4" fill="#FFD700"/>
</svg>