<svg viewBox="0 0 64 64" xmlns="http://www.w3.org/2000/svg">
  <rect x="22" y="28" width="20" height="24" rx="4" fill="#4B4B4B"/>
  <rect x="24" y="30" width="16" height="20" fill="#696969"/>
  <ellipse cx="32" cy="22" rx="8" ry="10" fill="#4B4B4B"/>
  <circle cx="29" cy="20" r="3" fill="#FF1493"/>
  <circle cx="35" cy="20" r="3" fill="#FF1493"/>
  <rect x="28" y="24" width="8" height="6" fill="#4B4B4B"/>
  <rect x="18" y="36" width="6" height="12" fill="#696969"/>
  <rect x="40" y="36" width="6" height="12" fill="#696969"/>
  <circle cx="46" cy="18" r="1" fill="#000"/>
  <path d="M 44 16 Q 42 14 40 16 Q 42 18 44 16" fill="#FF69B4"/>
  <path d="M 48 16 Q 50 14 52 16 Q 50 18 48 16" fill="#FF69B4"/>
  <path d="M 44 20 Q 42 22 40 20 Q 42 18 44 20" fill="#FFB6C1"/>
  <path d="M 48 20 Q 50 22 52 20 Q 50 18 48 20" fill="#FFB6C1"/>
  <circle cx="46" cy="18" r="3" fill="none" stroke="#FF1493" stroke-width="0.5"/>
</svg>