<svg viewBox="0 0 64 64" xmlns="http://www.w3.org/2000/svg">
  <circle cx="32" cy="32" r="18" fill="#FFE4B5"/>
  <circle cx="28" cy="28" r="2" fill="#000"/>
  <circle cx="36" cy="28" r="2" fill="#000"/>
  <path d="M 24 34 Q 32 42 40 34" fill="#000"/>
  <path d="M 24 34 Q 32 40 40 34" fill="#FF6347"/>
  <ellipse cx="32" cy="18" rx="16" ry="8" fill="#FFD700"/>
  <path d="M 20 18 L 22 10 L 24 18 M 28 18 L 30 8 L 32 18 M 36 18 L 38 8 L 40 18 M 42 18 L 44 10 L 46 18" fill="#FFD700"/>
  <circle cx="30" cy="12" r="3" fill="#FF0000"/>
  <circle cx="34" cy="12" r="3" fill="#FF0000"/>
  <path d="M 14 32 L 12 28 M 50 32 L 52 28" stroke="#FFE4B5" stroke-width="3"/>
  <rect x="28" y="48" width="8" height="8" fill="#9370DB"/>
  <path d="M 20 36 L 18 40 M 44 36 L 46 40" stroke="#000" stroke-width="2"/>
</svg>