<svg viewBox="0 0 64 64" xmlns="http://www.w3.org/2000/svg">
  <defs>
    <linearGradient id="skinGradKing" x1="0%" y1="0%" x2="0%" y2="100%">
      <stop offset="0%" style="stop-color:#FFE4B5"/>
      <stop offset="100%" style="stop-color:#FFDAB9"/>
    </linearGradient>
    <linearGradient id="crownGrad" x1="0%" y1="0%" x2="0%" y2="100%">
      <stop offset="0%" style="stop-color:#FFD700"/>
      <stop offset="50%" style="stop-color:#FFA500"/>
      <stop offset="100%" style="stop-color:#FF8C00"/>
    </linearGradient>
    <filter id="shadowKing"><feDropShadow dx="2" dy="3" stdDeviation="2" flood-opacity="0.4"/></filter>
  </defs>
  <ellipse cx="32" cy="56" rx="20" ry="4" fill="#000" opacity="0.2"/>
  <ellipse cx="32" cy="32" rx="20" ry="22" fill="url(#skinGradKing)" filter="url(#shadowKing)"/>
  <circle cx="26" cy="28" r="3" fill="#000"/>
  <circle cx="38" cy="28" r="3" fill="#000"/>
  <path d="M 22 36 Q 32 46 42 36" fill="#8B0000"/>
  <path d="M 23 37 Q 32 45 41 37" fill="#FF6347"/>
  <ellipse cx="32" cy="42" rx="6" ry="3" fill="#FF1493" opacity="0.6"/>
  <path d="M 18 20 Q 20 12 22 20 Q 24 14 26 20 Q 28 12 30 20 Q 32 10 34 20 Q 36 12 38 20 Q 40 14 42 20 Q 44 12 46 20" fill="url(#crownGrad)" filter="url(#shadowKing)"/>
  <circle cx="24" cy="14" r="4" fill="#DC143C"/>
  <circle cx="32" cy="12" r="5" fill="#DC143C"/>
  <circle cx="40" cy="14" r="4" fill="#DC143C"/>
  <rect x="28" y="50" width="8" height="6" fill="#9370DB" filter="url(#shadowKing)"/>
  <path d="M 14 34 L 12 38 M 50 34 L 52 38" stroke="#8B4513" stroke-width="2"/>
  <circle cx="32" cy="32" r="24" fill="none" stroke="#FFD700" stroke-width="1" opacity="0.3"/>
</svg>