<svg xmlns="http://www.w3.org/2000/svg" viewBox="0 0 64 64">
  <ellipse cx="32" cy="54" rx="22" ry="5" fill="#4a4a4a" opacity="0.3"/>
  <rect x="24" y="32" width="16" height="22" fill="#c06080" rx="2"/>
  <circle cx="32" cy="24" r="9" fill="#f4c8a4"/>
  <path d="M 24 16 L 22 24 L 28 20 Z" fill="#c08040"/>
  <path d="M 40 16 L 42 24 L 36 20 Z" fill="#c08040"/>
  <ellipse cx="29" cy="23" rx="2" ry="2.5" fill="#4a2a2a"/>
  <ellipse cx="35" cy="23" rx="2" ry="2.5" fill="#4a2a2a"/>
  <rect x="20" y="36" width="6" height="14" fill="#a05070" rx="1"/>
  <rect x="38" y="36" width="6" height="14" fill="#a05070" rx="1"/>
  <path d="M 16 30 L 24 26 L 22 32 L 28 28 L 22 34" fill="#d0d0d0"/>
  <path d="M 48 30 L 40 26 L 42 32 L 36 28 L 42 34" fill="#d0d0d0"/>
</svg>