<svg viewBox="0 0 64 64" xmlns="http://www.w3.org/2000/svg">
  <circle cx="32" cy="24" r="8" fill="#FFE4B5"/>
  <circle cx="30" cy="22" r="1.5" fill="#000"/>
  <circle cx="34" cy="22" r="1.5" fill="#000"/>
  <ellipse cx="32" cy="27" rx="3" ry="4" fill="#8B0000"/>
  <path d="M 24 20 Q 26 14 32 14 Q 38 14 40 20" fill="#FFD700"/>
  <path d="M 24 18 L 26 12 L 28 18 M 36 18 L 38 12 L 40 18" fill="#FFD700"/>
  <rect x="26" y="30" width="12" height="14" fill="#DC143C"/>
  <rect x="20" y="34" width="8" height="4" fill="#B22222"/>
  <rect x="36" y="34" width="8" height="4" fill="#B22222"/>
  <rect x="24" y="42" width="5" height="8" fill="#8B0000"/>
  <rect x="35" y="42" width="5" height="8" fill="#8B0000"/>
  <path d="M 16 26 L 12 22 L 10 28 L 8 24" stroke="#FF4500" stroke-width="2"/>
  <path d="M 48 26 L 52 22 L 54 28 L 56 24" stroke="#FF4500" stroke-width="2"/>
  <circle cx="12" cy="24" r="3" fill="#FFA500" opacity="0.5"/>
  <circle cx="52" cy="24" r="3" fill="#FFA500" opacity="0.5"/>
</svg>